<svg width="72" height="80" viewBox="0 0 72 80" fill="none" xmlns="http://www.w3.org/2000/svg">
<path d="M12.7646 34.8454C15.0237 46.6203 30.4268 59.4904 45.0084 52.1654C43.1601 52.9184 41.1063 53.2607 38.9841 53.1238C32.4121 52.7131 27.0724 47.3733 26.6616 40.7329C26.1824 32.9971 32.2752 26.562 39.9425 26.562C43.297 26.562 46.3776 27.7942 48.7052 29.848C52.265 32.9971 57.1256 34.0924 61.6438 32.5863L62.1915 32.3809C71.6387 29.2319 74.2402 17.0463 66.8466 10.3374C60.1377 4.31302 51.3066 0.479354 41.654 0.0686035C15.366 2.60156 10.3001 22.1122 12.7646 34.8454Z" fill="#6098F4"/>
<path d="M0.0312903 38.3367C-0.858668 61.0648 17.3512 79.754 39.874 79.754C50.2112 79.754 59.59 75.8518 66.7097 69.4168C74.1032 62.7078 71.4333 50.3853 61.9176 47.2363C57.3994 45.7302 52.3335 46.6201 48.7052 49.8377C47.6098 50.7961 46.3091 51.6176 44.94 52.2337C30.3583 59.5588 14.9552 46.6886 12.6961 34.9138C10.3 22.112 15.366 2.60142 41.654 0.0684583C41.1063 0 40.4902 0 39.874 0C18.5835 0 0.85279 17.0461 0.0312903 38.3367Z" fill="url(#paint0_linear_9_2450)"/>
<defs>
<linearGradient id="paint0_linear_9_2450" x1="8.04119" y1="15.4124" x2="64.3917" y2="71.7629" gradientUnits="userSpaceOnUse">
<stop stop-color="#1DFBD3"/>
<stop offset="1" stop-color="#6098F4"/>
</linearGradient>
</defs>
</svg>
